<svg id="visual" viewBox="0 0 900 600" width="900" height="600" xmlns="http://www.w3.org/2000/svg" xmlns:xlink="http://www.w3.org/1999/xlink" version="1.1"><path d="M0 485L12.5 490.5C25 496 50 507 75 510C100 513 125 508 150 505.8C175 503.7 200 504.3 225 499.7C250 495 275 485 300 483.3C325 481.7 350 488.3 375 489.3C400 490.3 425 485.7 450 487C475 488.3 500 495.7 525 496.2C550 496.7 575 490.3 600 485.5C625 480.7 650 477.3 675 481.5C700 485.7 725 497.3 750 501.3C775 505.3 800 501.7 825 500.5C850 499.3 875 500.7 887.5 501.3L900 502L900 601L887.5 601C875 601 850 601 825 601C800 601 775 601 750 601C725 601 700 601 675 601C650 601 625 601 600 601C575 601 550 601 525 601C500 601 475 601 450 601C425 601 400 601 375 601C350 601 325 601 300 601C275 601 250 601 225 601C200 601 175 601 150 601C125 601 100 601 75 601C50 601 25 601 12.5 601L0 601Z" fill="#8446f7"></path><path d="M0 519L12.5 523C25 527 50 535 75 531.8C100 528.7 125 514.3 150 513.3C175 512.3 200 524.7 225 532C250 539.3 275 541.7 300 536.8C325 532 350 520 375 515.8C400 511.7 425 515.3 450 514.7C475 514 500 509 525 511C550 513 575 522 600 527C625 532 650 533 675 528.3C700 523.7 725 513.3 750 513.5C775 513.7 800 524.3 825 525.7C850 527 875 519 887.5 515L900 511L900 601L887.5 601C875 601 850 601 825 601C800 601 775 601 750 601C725 601 700 601 675 601C650 601 625 601 600 601C575 601 550 601 525 601C500 601 475 601 450 601C425 601 400 601 375 601C350 601 325 601 300 601C275 601 250 601 225 601C200 601 175 601 150 601C125 601 100 601 75 601C50 601 25 601 12.5 601L0 601Z" fill="#0087f5"></path><path d="M0 555L12.5 555.8C25 556.7 50 558.3 75 561.2C100 564 125 568 150 568.7C175 569.3 200 566.7 225 565.3C250 564 275 564 300 563.3C325 562.7 350 561.3 375 560.8C400 560.3 425 560.7 450 561C475 561.3 500 561.7 525 560.3C550 559 575 556 600 557.7C625 559.3 650 565.7 675 563.2C700 560.7 725 549.3 750 549C775 548.7 800 559.3 825 564.2C850 569 875 568 887.5 567.5L900 567L900 601L887.5 601C875 601 850 601 825 601C800 601 775 601 750 601C725 601 700 601 675 601C650 601 625 601 600 601C575 601 550 601 525 601C500 601 475 601 450 601C425 601 400 601 375 601C350 601 325 601 300 601C275 601 250 601 225 601C200 601 175 601 150 601C125 601 100 601 75 601C50 601 25 601 12.5 601L0 601Z" fill="#68a5cb"></path></svg>