<svg id="visual" viewBox="0 0 960 300" width="960" height="300" xmlns="http://www.w3.org/2000/svg" xmlns:xlink="http://www.w3.org/1999/xlink" version="1.1"><path d="M0 125L16 121.3C32 117.7 64 110.3 96 103.2C128 96 160 89 192 85.5C224 82 256 82 288 87.5C320 93 352 104 384 109.7C416 115.3 448 115.7 480 112.8C512 110 544 104 576 104.3C608 104.7 640 111.3 672 109.3C704 107.3 736 96.7 768 95C800 93.3 832 100.7 864 107.3C896 114 928 120 944 123L960 126L960 0L944 0C928 0 896 0 864 0C832 0 800 0 768 0C736 0 704 0 672 0C640 0 608 0 576 0C544 0 512 0 480 0C448 0 416 0 384 0C352 0 320 0 288 0C256 0 224 0 192 0C160 0 128 0 96 0C64 0 32 0 16 0L0 0Z" fill="#9811ef"></path><path d="M0 65L16 63C32 61 64 57 96 55.2C128 53.3 160 53.7 192 59.5C224 65.3 256 76.7 288 76.3C320 76 352 64 384 60.3C416 56.7 448 61.3 480 64.3C512 67.3 544 68.7 576 70.7C608 72.7 640 75.3 672 78.5C704 81.7 736 85.3 768 82.2C800 79 832 69 864 64C896 59 928 59 944 59L960 59L960 0L944 0C928 0 896 0 864 0C832 0 800 0 768 0C736 0 704 0 672 0C640 0 608 0 576 0C544 0 512 0 480 0C448 0 416 0 384 0C352 0 320 0 288 0C256 0 224 0 192 0C160 0 128 0 96 0C64 0 32 0 16 0L0 0Z" fill="#c000ca"></path><path d="M0 54L16 53.2C32 52.3 64 50.7 96 49.2C128 47.7 160 46.3 192 41.8C224 37.3 256 29.7 288 25.5C320 21.3 352 20.7 384 20C416 19.3 448 18.7 480 20.3C512 22 544 26 576 26.5C608 27 640 24 672 27.3C704 30.7 736 40.3 768 40.3C800 40.3 832 30.7 864 30.3C896 30 928 39 944 43.5L960 48L960 0L944 0C928 0 896 0 864 0C832 0 800 0 768 0C736 0 704 0 672 0C640 0 608 0 576 0C544 0 512 0 480 0C448 0 416 0 384 0C352 0 320 0 288 0C256 0 224 0 192 0C160 0 128 0 96 0C64 0 32 0 16 0L0 0Z" fill="#d214aa"></path></svg>