<svg id="visual" viewBox="0 0 900 330" width="900" height="330" xmlns="http://www.w3.org/2000/svg" xmlns:xlink="http://www.w3.org/1999/xlink" version="1.1"><path d="M0 88L13.7 94.3C27.3 100.7 54.7 113.3 82 115.5C109.3 117.7 136.7 109.3 163.8 104.7C191 100 218 99 245.2 92.3C272.3 85.7 299.7 73.3 327 69.3C354.3 65.3 381.7 69.7 409 72.7C436.3 75.7 463.7 77.3 491 82.7C518.3 88 545.7 97 573 94.5C600.3 92 627.7 78 654.8 81.2C682 84.3 709 104.7 736.2 113.5C763.3 122.3 790.7 119.7 818 112.8C845.3 106 872.7 95 886.3 89.5L900 84L900 331L886.3 331C872.7 331 845.3 331 818 331C790.7 331 763.3 331 736.2 331C709 331 682 331 654.8 331C627.7 331 600.3 331 573 331C545.7 331 518.3 331 491 331C463.7 331 436.3 331 409 331C381.7 331 354.3 331 327 331C299.7 331 272.3 331 245.2 331C218 331 191 331 163.8 331C136.7 331 109.3 331 82 331C54.7 331 27.3 331 13.7 331L0 331Z" fill="#68a5cb"></path><path d="M0 166L13.7 159.2C27.3 152.3 54.7 138.7 82 130.7C109.3 122.7 136.7 120.3 163.8 124.5C191 128.7 218 139.3 245.2 143.8C272.3 148.3 299.7 146.7 327 150C354.3 153.3 381.7 161.7 409 161.3C436.3 161 463.7 152 491 149.5C518.3 147 545.7 151 573 146.5C600.3 142 627.7 129 654.8 125.3C682 121.7 709 127.3 736.2 130.8C763.3 134.3 790.7 135.7 818 131.8C845.3 128 872.7 119 886.3 114.5L900 110L900 331L886.3 331C872.7 331 845.3 331 818 331C790.7 331 763.3 331 736.2 331C709 331 682 331 654.8 331C627.7 331 600.3 331 573 331C545.7 331 518.3 331 491 331C463.7 331 436.3 331 409 331C381.7 331 354.3 331 327 331C299.7 331 272.3 331 245.2 331C218 331 191 331 163.8 331C136.7 331 109.3 331 82 331C54.7 331 27.3 331 13.7 331L0 331Z" fill="#4176a9"></path><path d="M0 225L13.7 217C27.3 209 54.7 193 82 186.5C109.3 180 136.7 183 163.8 181.3C191 179.7 218 173.3 245.2 172.2C272.3 171 299.7 175 327 175.5C354.3 176 381.7 173 409 172.3C436.3 171.7 463.7 173.3 491 181.8C518.3 190.3 545.7 205.7 573 206.8C600.3 208 627.7 195 654.8 197.7C682 200.3 709 218.7 736.2 219.2C763.3 219.7 790.7 202.3 818 199.5C845.3 196.7 872.7 208.3 886.3 214.2L900 220L900 331L886.3 331C872.7 331 845.3 331 818 331C790.7 331 763.3 331 736.2 331C709 331 682 331 654.8 331C627.7 331 600.3 331 573 331C545.7 331 518.3 331 491 331C463.7 331 436.3 331 409 331C381.7 331 354.3 331 327 331C299.7 331 272.3 331 245.2 331C218 331 191 331 163.8 331C136.7 331 109.3 331 82 331C54.7 331 27.3 331 13.7 331L0 331Z" fill="#6078E5"></path><path d="M0 240L13.7 244C27.3 248 54.7 256 82 256.3C109.3 256.7 136.7 249.3 163.8 245.5C191 241.7 218 241.3 245.2 247C272.3 252.7 299.7 264.3 327 267.5C354.3 270.7 381.7 265.3 409 258.5C436.3 251.7 463.7 243.3 491 241.3C518.3 239.3 545.7 243.7 573 247.2C600.3 250.7 627.7 253.3 654.8 258.7C682 264 709 272 736.2 278.7C763.3 285.3 790.7 290.7 818 283.5C845.3 276.3 872.7 256.7 886.3 246.8L900 237L900 331L886.3 331C872.7 331 845.3 331 818 331C790.7 331 763.3 331 736.2 331C709 331 682 331 654.8 331C627.7 331 600.3 331 573 331C545.7 331 518.3 331 491 331C463.7 331 436.3 331 409 331C381.7 331 354.3 331 327 331C299.7 331 272.3 331 245.2 331C218 331 191 331 163.8 331C136.7 331 109.3 331 82 331C54.7 331 27.3 331 13.7 331L0 331Z" fill="#6078E5"></path></svg>