<svg id="visual" viewBox="0 0 960 300" width="960" height="300" xmlns="http://www.w3.org/2000/svg" xmlns:xlink="http://www.w3.org/1999/xlink" version="1.1"><path d="M0 72L16 78.5C32 85 64 98 96 111C128 124 160 137 192 143.3C224 149.7 256 149.3 288 139.5C320 129.7 352 110.3 384 100.2C416 90 448 89 480 94C512 99 544 110 576 109.7C608 109.3 640 97.7 672 101.3C704 105 736 124 768 126.8C800 129.7 832 116.3 864 104.3C896 92.3 928 81.7 944 76.3L960 71L960 301L944 301C928 301 896 301 864 301C832 301 800 301 768 301C736 301 704 301 672 301C640 301 608 301 576 301C544 301 512 301 480 301C448 301 416 301 384 301C352 301 320 301 288 301C256 301 224 301 192 301C160 301 128 301 96 301C64 301 32 301 16 301L0 301Z" fill="#9811ef"></path><path d="M0 180L16 183.7C32 187.3 64 194.7 96 198C128 201.3 160 200.7 192 190C224 179.3 256 158.7 288 159.2C320 159.7 352 181.3 384 188C416 194.7 448 186.3 480 181C512 175.7 544 173.3 576 169.8C608 166.3 640 161.7 672 155.8C704 150 736 143 768 148.5C800 154 832 172 864 181.3C896 190.7 928 191.3 944 191.7L960 192L960 301L944 301C928 301 896 301 864 301C832 301 800 301 768 301C736 301 704 301 672 301C640 301 608 301 576 301C544 301 512 301 480 301C448 301 416 301 384 301C352 301 320 301 288 301C256 301 224 301 192 301C160 301 128 301 96 301C64 301 32 301 16 301L0 301Z" fill="#c000ca"></path><path d="M0 200L16 201.5C32 203 64 206 96 208.7C128 211.3 160 213.7 192 221.7C224 229.7 256 243.3 288 250.8C320 258.3 352 259.7 384 260.8C416 262 448 263 480 259.8C512 256.7 544 249.3 576 248.5C608 247.7 640 253.3 672 247.5C704 241.7 736 224.3 768 224.3C800 224.3 832 241.7 864 242.2C896 242.7 928 226.3 944 218.2L960 210L960 301L944 301C928 301 896 301 864 301C832 301 800 301 768 301C736 301 704 301 672 301C640 301 608 301 576 301C544 301 512 301 480 301C448 301 416 301 384 301C352 301 320 301 288 301C256 301 224 301 192 301C160 301 128 301 96 301C64 301 32 301 16 301L0 301Z" fill="#d214aa"></path></svg>