<svg id="visual" viewBox="0 0 900 330" width="900" height="330" xmlns="http://www.w3.org/2000/svg" xmlns:xlink="http://www.w3.org/1999/xlink" version="1.1"><path d="M0 173L13.7 174.2C27.3 175.3 54.7 177.7 82 176.2C109.3 174.7 136.7 169.3 163.8 175.7C191 182 218 200 245.2 208.8C272.3 217.7 299.7 217.3 327 215.5C354.3 213.7 381.7 210.3 409 208.8C436.3 207.3 463.7 207.7 491 209.5C518.3 211.3 545.7 214.7 573 213.2C600.3 211.7 627.7 205.3 654.8 202.8C682 200.3 709 201.7 736.2 205C763.3 208.3 790.7 213.7 818 209.8C845.3 206 872.7 193 886.3 186.5L900 180L900 331L886.3 331C872.7 331 845.3 331 818 331C790.7 331 763.3 331 736.2 331C709 331 682 331 654.8 331C627.7 331 600.3 331 573 331C545.7 331 518.3 331 491 331C463.7 331 436.3 331 409 331C381.7 331 354.3 331 327 331C299.7 331 272.3 331 245.2 331C218 331 191 331 163.8 331C136.7 331 109.3 331 82 331C54.7 331 27.3 331 13.7 331L0 331Z" fill="#8446f7"></path><path d="M0 244L13.7 238.8C27.3 233.7 54.7 223.3 82 221.5C109.3 219.7 136.7 226.3 163.8 227.7C191 229 218 225 245.2 229.5C272.3 234 299.7 247 327 249.3C354.3 251.7 381.7 243.3 409 238.2C436.3 233 463.7 231 491 227.7C518.3 224.3 545.7 219.7 573 220.5C600.3 221.3 627.7 227.7 654.8 229.5C682 231.3 709 228.7 736.2 227.3C763.3 226 790.7 226 818 230.7C845.3 235.3 872.7 244.7 886.3 249.3L900 254L900 331L886.3 331C872.7 331 845.3 331 818 331C790.7 331 763.3 331 736.2 331C709 331 682 331 654.8 331C627.7 331 600.3 331 573 331C545.7 331 518.3 331 491 331C463.7 331 436.3 331 409 331C381.7 331 354.3 331 327 331C299.7 331 272.3 331 245.2 331C218 331 191 331 163.8 331C136.7 331 109.3 331 82 331C54.7 331 27.3 331 13.7 331L0 331Z" fill="#0087f5"></path><path d="M0 277L13.7 274.8C27.3 272.7 54.7 268.3 82 271.5C109.3 274.7 136.7 285.3 163.8 289.7C191 294 218 292 245.2 288.2C272.3 284.3 299.7 278.7 327 274.8C354.3 271 381.7 269 409 271.5C436.3 274 463.7 281 491 280.5C518.3 280 545.7 272 573 269.7C600.3 267.3 627.7 270.7 654.8 273.3C682 276 709 278 736.2 275.7C763.3 273.3 790.7 266.7 818 270C845.3 273.3 872.7 286.7 886.3 293.3L900 300L900 331L886.3 331C872.7 331 845.3 331 818 331C790.7 331 763.3 331 736.2 331C709 331 682 331 654.8 331C627.7 331 600.3 331 573 331C545.7 331 518.3 331 491 331C463.7 331 436.3 331 409 331C381.7 331 354.3 331 327 331C299.7 331 272.3 331 245.2 331C218 331 191 331 163.8 331C136.7 331 109.3 331 82 331C54.7 331 27.3 331 13.7 331L0 331Z" fill="#68a5cb"></path></svg>