<svg id="Layer_1" data-name="Layer 1" xmlns="http://www.w3.org/2000/svg" viewBox="0 0 1024 1024"><defs><style>.cls-1{fill:#68a5cb;}</style></defs><path class="cls-1" d="M106.39,491.43c3.9-70.11-79.82-204.26,58.7-274.69s180.78,28.17,241.82,0,171.39-82.17,248.87-49.31S752,356.72,841.26,324.29,1000.91,459.78,954,512s-61.05,249.43-63.39,291.7S726.22,993.87,594.74,862.39,306.35,799,268.39,803.7c-32.78,4-191-23.48-193.3-133.05C72.62,555.71,103.86,536.85,106.39,491.43Z"/><path class="cls-1" d="M349,831.09c-37.57,17.21-43.83,65.74-26.61,75.13s47,23.48,51.65,34.43,67.31,17.22,72,0S480.48,878,457,864s-53.41,1.56-67.4-20.35S349,831.09,349,831.09Z"/><path class="cls-1" d="M105.27,856c-3.48,7-8.75,29.18,21,34.23s37.52-5.39,50,5,39.13-2.09,37-11-3.89-30.47-24.2-39.52c-16.24-7.24-52,3.24-57.13,3.33C121.23,848.3,107.51,851.48,105.27,856Z"/><path class="cls-1" d="M158,946.13s31.35,49.3,76.74,38.35,25.83-22.7,48.52-29,12.52-52.43-6.26-47.74S225.84,932,213.46,919.52,151.7,917.17,158,946.13Z"/></svg>