<svg id="Layer_1" data-name="Layer 1" xmlns="http://www.w3.org/2000/svg" viewBox="0 0 1024 1024"><defs><style>.cls-1{fill:#68a5cb;}</style></defs><path class="cls-1" d="M126.27,333S82.66,217.77,179.21,196s118.35,15.57,143.27-46.72,118.35-21.8,146.38,0,96.55,5.25,143.26-33.19,109,61.22,109,61.22,65.4,21.8,31.14,90.32-3.11,159.7-3.11,159.7,90.32,178.22-7.79,217.15-129.25,7.79-157.28,34.26S551.39,806.4,518.69,808,363,840.66,331.82,751.9,174.54,611.75,174.54,611.75,104.46,594.62,145,484.06,126.27,333,126.27,333Z"/><path class="cls-1" d="M739.77,873.8c-21.07,19.26-113.48,12.79-113.48,12.79s-52.95-76-47.23-104,84.29-77,84.29-77l99.33,56.36S760.84,854.54,739.77,873.8Z"/><path class="cls-1" d="M931.28,739.71c-13.1,12-70.51,7.95-70.51,7.95s-32.9-47.23-29.35-64.61,34.64-47.49,52.38-47.87,61.71,35,61.71,35S944.37,727.74,931.28,739.71Z"/></svg>