<svg id="Layer_1" data-name="Layer 1" xmlns="http://www.w3.org/2000/svg" viewBox="0 0 1024 1024"><defs><style>.cls-1{fill:#68a5cb;}</style></defs><path class="cls-1" d="M797.07,380.3c12.49,36.6-46.24,87.34-82.83,99.83s-114.84,5.64-127.33-31,45.51-89.06,82.1-101.55S784.58,343.71,797.07,380.3Z"/><path class="cls-1" d="M760.89,221.42c9.55,28-15.92,60.17-33.46,66.16s-58-5.89-67.54-33.88,15.39-61.51,32.93-67.5S751.33,193.42,760.89,221.42Z"/><path class="cls-1" d="M216.06,710.15c5.67,16.64-5.29,34.34-13.47,37.13s-28-5.69-33.72-22.32,5-35.13,13.16-37.93S210.38,693.52,216.06,710.15Z"/><path class="cls-1" d="M190.37,918.72c9.55,28-15.92,60.18-33.46,66.16S98.93,979,89.37,951s15.39-61.5,32.93-67.49S180.81,890.73,190.37,918.72Z"/><path class="cls-1" d="M329.91,884.22c5.54,16.23-14.27,36.6-27.14,41s-41.35-.77-46.89-17,13.95-37.37,26.83-41.77S324.37,868,329.91,884.22Z"/><path class="cls-1" d="M221.62,392.52s-90.7-9.69-38.35-82.93,135.94-138.54,204-113.23,174.41,31.55,196.17,98.37-55,131.64-29.17,169.47S655.06,518,655.06,518,807.3,559.08,796.53,652.18s-86,52.58-90.18,81.57,19.26,50.59-4.91,66.63-125,49.06-135.37,67.55-41.43,91.73-61.59,96.55-62.14-48.27-44.18-74.81,38-121.56,10.78-119.66-72,54.91-92.72,61.83S330.09,855,318.65,808.67s-84.6-22-77.3-52.3,100.14-114.21,61.86-123.08-118.45-26-137.21-68.47,39.59-111.5,42.51-113.22S271.6,409.22,221.62,392.52Z"/></svg>